<svg width="25" height="25" viewBox="0 0 25 25" fill="none" xmlns="http://www.w3.org/2000/svg">
<path d="M14.5947 1.1875C13.8672 1.20215 13.3447 1.34375 12.998 1.59766L8.24706 4.1416L5.60546 7.73486C5.04881 8.59424 5.44432 10.2544 7.1826 9.18994L9.0869 6.68018C11.5039 4.5957 16.4355 5.55225 14.0967 9.73682C12.9492 12.1587 13.4863 13.3403 14.9658 13.8384L15.6396 11.5728C16.8066 8.9458 18.9844 8.47217 18.8965 6.35303L24.1308 6.729L24.082 1.25586L14.5947 1.1875ZM11.9531 6.23584C11.1035 6.22119 10.2685 6.57275 9.66307 7.08057L7.75389 9.59033C8.27635 10.0054 8.8037 9.78076 9.32616 9.27783C9.94139 9.59033 10.4199 9.10693 10.8105 8.14014C10.9717 7.48096 11.2109 7.01709 11.9531 6.23584ZM8.06639 10.9233C8.04686 10.9233 8.02245 10.9233 8.00292 10.9282C7.84178 10.9624 7.65135 11.1333 7.5244 11.5239C7.39257 11.9146 7.36327 12.4712 7.48046 13.0669C7.59764 13.6577 7.84178 14.1606 8.11522 14.4731C8.37889 14.7808 8.62303 14.8687 8.78417 14.8345C8.95018 14.8052 9.13573 14.6294 9.26268 14.2437C9.39452 13.853 9.4287 13.2915 9.31151 12.7007C9.18944 12.105 8.9453 11.6021 8.67674 11.2944C8.44237 11.021 8.22753 10.9233 8.06639 10.9233ZM12.0996 16.1382C11.7139 16.1431 11.2305 16.2651 10.7568 16.4946C10.2148 16.7632 9.79003 17.1343 9.56053 17.4761C9.33104 17.813 9.31151 18.0669 9.38475 18.2183C9.45799 18.3647 9.67284 18.5063 10.083 18.5259C10.4932 18.5503 11.0449 18.438 11.5869 18.1694C12.1289 17.9009 12.5537 17.5347 12.7832 17.1929C13.0127 16.856 13.0322 16.5972 12.959 16.4507C12.8857 16.2993 12.6709 16.1626 12.2607 16.1431C12.207 16.1382 12.1582 16.1382 12.0996 16.1382ZM7.33397 20.8062C7.10448 20.811 6.89452 20.8452 6.70897 20.8989C6.29393 21.021 6.05467 21.2407 5.97655 21.4995C5.89354 21.7632 5.97655 22.0757 6.25487 22.4126C6.53807 22.7446 7.01171 23.062 7.59764 23.2378C8.1787 23.4136 8.7451 23.4087 9.16503 23.2817C9.58495 23.1597 9.82421 22.9399 9.90233 22.6812C9.98046 22.4175 9.90233 22.105 9.61913 21.7681C9.34081 21.436 8.86717 21.1187 8.28124 20.9429C7.94921 20.8452 7.62694 20.8013 7.33397 20.8062Z" fill="#FA0606"/>
</svg>
