<svg width="114" height="52" viewBox="0 0 114 52" fill="none" xmlns="http://www.w3.org/2000/svg">
<path d="M103.595 1.1875C102.867 1.20215 102.345 1.34375 101.998 1.59766L97.2471 4.1416L94.6055 7.73486C94.0488 8.59424 94.4443 10.2544 96.1826 9.18994L98.0869 6.68018C100.504 4.5957 105.436 5.55225 103.097 9.73682C101.949 12.1587 102.486 13.3403 103.966 13.8384L104.64 11.5728C105.807 8.9458 107.984 8.47217 107.896 6.35303L113.131 6.729L113.082 1.25586L103.595 1.1875ZM100.953 6.23584C100.104 6.22119 99.2685 6.57275 98.6631 7.08057L96.7539 9.59033C97.2764 10.0054 97.8037 9.78076 98.3262 9.27783C98.9414 9.59033 99.4199 9.10693 99.8105 8.14014C99.9717 7.48096 100.211 7.01709 100.953 6.23584ZM97.0664 10.9233C97.0469 10.9233 97.0224 10.9233 97.0029 10.9282C96.8418 10.9624 96.6514 11.1333 96.5244 11.5239C96.3926 11.9146 96.3633 12.4712 96.4805 13.0669C96.5976 13.6577 96.8418 14.1606 97.1152 14.4731C97.3789 14.7808 97.623 14.8687 97.7842 14.8345C97.9502 14.8052 98.1357 14.6294 98.2627 14.2437C98.3945 13.853 98.4287 13.2915 98.3115 12.7007C98.1894 12.105 97.9453 11.6021 97.6767 11.2944C97.4424 11.021 97.2275 10.9233 97.0664 10.9233ZM101.1 16.1382C100.714 16.1431 100.23 16.2651 99.7568 16.4946C99.2148 16.7632 98.79 17.1343 98.5605 17.4761C98.331 17.813 98.3115 18.0669 98.3848 18.2183C98.458 18.3647 98.6728 18.5063 99.083 18.5259C99.4932 18.5503 100.045 18.438 100.587 18.1694C101.129 17.9009 101.554 17.5347 101.783 17.1929C102.013 16.856 102.032 16.5972 101.959 16.4507C101.886 16.2993 101.671 16.1626 101.261 16.1431C101.207 16.1382 101.158 16.1382 101.1 16.1382ZM96.334 20.8062C96.1045 20.811 95.8945 20.8452 95.709 20.8989C95.2939 21.021 95.0547 21.2407 94.9765 21.4995C94.8935 21.7632 94.9765 22.0757 95.2549 22.4126C95.5381 22.7446 96.0117 23.062 96.5976 23.2378C97.1787 23.4136 97.7451 23.4087 98.165 23.2817C98.5849 23.1597 98.8242 22.9399 98.9023 22.6812C98.9805 22.4175 98.9023 22.105 98.6191 21.7681C98.3408 21.436 97.8672 21.1187 97.2812 20.9429C96.9492 20.8452 96.6269 20.8013 96.334 20.8062Z" fill="#FA0606"/>
<path d="M1.66 42V28H7.72C8.97333 28 10.0533 28.2067 10.96 28.62C11.8667 29.02 12.5667 29.6 13.06 30.36C13.5533 31.12 13.8 32.0267 13.8 33.08C13.8 34.12 13.5533 35.02 13.06 35.78C12.5667 36.54 11.8667 37.1267 10.96 37.54C10.0533 37.94 8.97333 38.14 7.72 38.14H3.46L4.9 36.68V42H1.66ZM4.9 37.04L3.46 35.5H7.54C8.54 35.5 9.28667 35.2867 9.78 34.86C10.2733 34.4333 10.52 33.84 10.52 33.08C10.52 32.3067 10.2733 31.7067 9.78 31.28C9.28667 30.8533 8.54 30.64 7.54 30.64H3.46L4.9 29.1V37.04ZM22.5955 42V39.9L22.3955 39.44V35.68C22.3955 35.0133 22.1888 34.4933 21.7755 34.12C21.3755 33.7467 20.7555 33.56 19.9155 33.56C19.3421 33.56 18.7755 33.6533 18.2155 33.84C17.6688 34.0133 17.2021 34.2533 16.8155 34.56L15.6955 32.38C16.2821 31.9667 16.9888 31.6467 17.8155 31.42C18.6421 31.1933 19.4821 31.08 20.3355 31.08C21.9755 31.08 23.2488 31.4667 24.1555 32.24C25.0621 33.0133 25.5155 34.22 25.5155 35.86V42H22.5955ZM19.3155 42.16C18.4755 42.16 17.7555 42.02 17.1555 41.74C16.5555 41.4467 16.0955 41.0533 15.7755 40.56C15.4555 40.0667 15.2955 39.5133 15.2955 38.9C15.2955 38.26 15.4488 37.7 15.7555 37.22C16.0755 36.74 16.5755 36.3667 17.2555 36.1C17.9355 35.82 18.8221 35.68 19.9155 35.68H22.7755V37.5H20.2555C19.5221 37.5 19.0155 37.62 18.7355 37.86C18.4688 38.1 18.3355 38.4 18.3355 38.76C18.3355 39.16 18.4888 39.48 18.7955 39.72C19.1155 39.9467 19.5488 40.06 20.0955 40.06C20.6155 40.06 21.0821 39.94 21.4955 39.7C21.9088 39.4467 22.2088 39.08 22.3955 38.6L22.8755 40.04C22.6488 40.7333 22.2355 41.26 21.6355 41.62C21.0355 41.98 20.2621 42.16 19.3155 42.16ZM29.7039 46.04C29.1439 46.04 28.5906 45.9533 28.0439 45.78C27.4972 45.6067 27.0506 45.3667 26.7039 45.06L27.8439 42.84C28.0839 43.0533 28.3572 43.22 28.6639 43.34C28.9839 43.46 29.2972 43.52 29.6039 43.52C30.0439 43.52 30.3906 43.4133 30.6439 43.2C30.9106 43 31.1506 42.66 31.3639 42.18L31.9239 40.86L32.1639 40.52L36.0239 31.24H39.0239L34.1639 42.66C33.8172 43.5267 33.4172 44.2067 32.9639 44.7C32.5239 45.1933 32.0306 45.54 31.4839 45.74C30.9506 45.94 30.3572 46.04 29.7039 46.04ZM31.5439 42.42L26.7439 31.24H29.9639L33.6839 40.24L31.5439 42.42ZM48.8211 42L44.9411 31.24H47.8811L51.1011 40.5H49.7011L53.0611 31.24H55.7011L58.9611 40.5H57.5611L60.8811 31.24H63.6411L59.7411 42H56.7211L53.8611 34.06H54.7811L51.8211 42H48.8211ZM71.54 42V39.9L71.34 39.44V35.68C71.34 35.0133 71.1333 34.4933 70.72 34.12C70.32 33.7467 69.7 33.56 68.86 33.56C68.2867 33.56 67.72 33.6533 67.16 33.84C66.6133 34.0133 66.1467 34.2533 65.76 34.56L64.64 32.38C65.2267 31.9667 65.9333 31.6467 66.76 31.42C67.5867 31.1933 68.4267 31.08 69.28 31.08C70.92 31.08 72.1933 31.4667 73.1 32.24C74.0067 33.0133 74.46 34.22 74.46 35.86V42H71.54ZM68.26 42.16C67.42 42.16 66.7 42.02 66.1 41.74C65.5 41.4467 65.04 41.0533 64.72 40.56C64.4 40.0667 64.24 39.5133 64.24 38.9C64.24 38.26 64.3933 37.7 64.7 37.22C65.02 36.74 65.52 36.3667 66.2 36.1C66.88 35.82 67.7667 35.68 68.86 35.68H71.72V37.5H69.2C68.4667 37.5 67.96 37.62 67.68 37.86C67.4133 38.1 67.28 38.4 67.28 38.76C67.28 39.16 67.4333 39.48 67.74 39.72C68.06 39.9467 68.4933 40.06 69.04 40.06C69.56 40.06 70.0267 39.94 70.44 39.7C70.8533 39.4467 71.1533 39.08 71.34 38.6L71.82 40.04C71.5933 40.7333 71.18 41.26 70.58 41.62C69.98 41.98 69.2067 42.16 68.26 42.16ZM80.2084 42L75.6884 31.24H78.9084L82.6684 40.5H81.0684L84.9684 31.24H87.9684L83.4284 42H80.2084ZM94.4886 42.16C93.2619 42.16 92.1819 41.92 91.2486 41.44C90.3286 40.96 89.6153 40.3067 89.1086 39.48C88.6019 38.64 88.3486 37.6867 88.3486 36.62C88.3486 35.54 88.5953 34.5867 89.0886 33.76C89.5953 32.92 90.2819 32.2667 91.1486 31.8C92.0153 31.32 92.9953 31.08 94.0886 31.08C95.1419 31.08 96.0886 31.3067 96.9286 31.76C97.7819 32.2 98.4553 32.84 98.9486 33.68C99.4419 34.5067 99.6886 35.5 99.6886 36.66C99.6886 36.78 99.6819 36.92 99.6686 37.08C99.6553 37.2267 99.6419 37.3667 99.6286 37.5H90.8886V35.68H97.9886L96.7886 36.22C96.7886 35.66 96.6753 35.1733 96.4486 34.76C96.2219 34.3467 95.9086 34.0267 95.5086 33.8C95.1086 33.56 94.6419 33.44 94.1086 33.44C93.5753 33.44 93.1019 33.56 92.6886 33.8C92.2886 34.0267 91.9753 34.3533 91.7486 34.78C91.5219 35.1933 91.4086 35.6867 91.4086 36.26V36.74C91.4086 37.3267 91.5353 37.8467 91.7886 38.3C92.0553 38.74 92.4219 39.08 92.8886 39.32C93.3686 39.5467 93.9286 39.66 94.5686 39.66C95.1419 39.66 95.6419 39.5733 96.0686 39.4C96.5086 39.2267 96.9086 38.9667 97.2686 38.62L98.9286 40.42C98.4353 40.98 97.8153 41.4133 97.0686 41.72C96.3219 42.0133 95.4619 42.16 94.4886 42.16Z" fill="#22CAFF"/>
</svg>
